<svg xmlns="http://www.w3.org/2000/svg" viewBox="0 0 64 64" role="img" aria-label="AO">
  <rect width="64" height="64" rx="14" fill="#151719"/>
  <path fill="#ffffff" d="M18.5 43h-5.4l9.2-24h5.9l9.2 24h-5.6l-1.8-5.2h-9.7L18.5 43Zm3.3-9.5h6.7l-3.4-9.7-3.3 9.7Z"/>
  <path fill="#8fb83f" d="M45.2 43.4c-6.8 0-11.3-5.1-11.3-12.4 0-7.2 4.6-12.4 11.4-12.4 6.7 0 11.2 5.2 11.2 12.4 0 7.3-4.6 12.4-11.3 12.4Zm0-4.8c3.5 0 5.7-3 5.7-7.6s-2.2-7.6-5.7-7.6c-3.6 0-5.8 3-5.8 7.6s2.2 7.6 5.8 7.6Z"/>
  <circle cx="53" cy="14" r="4" fill="#ee6c57"/>
</svg>
